# xmcd
#
# Track frame offsets:
#	150
#	22035
#	39485
#	60865
#	84795
#	107595
#	130985
#	159685
#	178905
#	199555
#	220210
#	245032
#
# Disc length: 3638 seconds
#
# Revision: 1
# Processed by: cddbd v1.5.1PL0 Copyright (c) Steve Scherf et al.
# Submitted via: CDex 1.50Beta5
#
DISCID=9e0e340c
DTITLE=宇崎竜童 - しなやかに したたかに〜女たち〜
DYEAR=1994
DGENRE=Rock
TTITLE0=曼珠沙華
TTITLE1=謝肉祭
TTITLE2=酔ヶ浜
TTITLE3=ミス・ディオール
TTITLE4=別に…
TTITLE5=愚図
TTITLE6=あるアングル・トライアングル
TTITLE7=とまどいトワイライト
TTITLE8=FROZEN
TTITLE9=想い出ぼろぼろ
TTITLE10=夜へ…
TTITLE11=さよならの向う側
EXTD=
EXTT0=
EXTT1=
EXTT2=
EXTT3=
EXTT4=
EXTT5=
EXTT6=
EXTT7=
EXTT8=
EXTT9=
EXTT10=
EXTT11=
PLAYORDER=
